<svg width="200" height="140" viewBox="0 0 200 140" fill="none" xmlns="http://www.w3.org/2000/svg">
<path d="M101.066 24.2817C91.776 24.2817 85.5398 30.5718 85.5398 39.9372C85.5398 49.3027 91.776 55.5928 101.066 55.5928C110.356 55.5928 116.593 49.3027 116.593 39.9372C116.593 30.5718 110.356 24.2817 101.066 24.2817Z" fill="white"/>
<path d="M156.978 100.909C150.474 100.909 144.366 103.235 139.63 107.478C141.956 112.739 147.281 115.729 154.471 115.729C162.036 115.729 167.115 112.343 167.115 107.307C167.115 101.745 160.761 100.909 156.978 100.909Z" fill="white"/>
<path d="M193.989 39.8194L122.882 1.50019C121.061 0.514351 118.993 0 116.882 0H12.0011C5.36834 0 0 5.01493 0 11.1979V90.4723C0 94.4692 2.28235 98.1661 6.00054 100.17L77.1283 138.5C78.9499 139.486 81.018 140 83.1289 140H187.999C194.621 140 200 134.985 200 128.802V49.517C200 45.5201 197.718 41.8125 193.999 39.8194H193.989ZM67.581 55.0356V63.0295H24.27V59.0004C24.27 43.4305 32.3815 40.4194 45.7541 37.3119C56.4479 34.8152 59.1589 33.7972 59.1589 30.3682C59.1589 25.3318 52.8476 24.2817 47.5542 24.2817C41.3716 24.2817 36.3675 25.7068 32.2422 28.6429L30.1634 30.1217L26.2309 22.7922L27.8811 21.6456C33.2494 17.9059 39.6678 16.0949 47.5007 16.0949C60.3911 16.0949 67.7739 21.4099 67.7739 30.6682C67.7739 40.8481 58.8803 42.8733 47.6293 45.4344C37.7284 47.6739 33.8066 49.0991 32.9494 55.0356H67.5918H67.581ZM120.246 115.172V123.166H76.9354V119.137C76.9354 103.567 85.0469 100.556 98.4195 97.4481C109.113 94.9514 111.824 93.9334 111.824 90.5044C111.824 85.468 105.513 84.4179 100.22 84.4179C94.037 84.4179 89.0329 85.8431 84.9076 88.7792L82.8288 90.2579L78.8963 82.9284L80.5465 81.7819C85.9148 78.0421 92.3333 76.2312 100.166 76.2312C113.057 76.2312 120.439 81.5461 120.439 90.8044C120.439 100.984 111.546 103.01 100.295 105.571C90.3938 107.81 86.472 109.235 85.6148 115.172H120.257H120.246ZM101.066 63.7688C86.8578 63.7688 76.9247 53.964 76.9247 39.9372C76.9247 25.9104 86.847 16.1056 101.066 16.1056C115.285 16.1056 125.208 25.9104 125.208 39.9372C125.208 53.964 115.285 63.7688 101.066 63.7688ZM154.471 123.894C139.395 123.894 129.654 114.657 129.654 100.363C129.654 86.0681 139.92 76.2204 155.821 76.2204C162.615 76.2204 168.572 77.8385 173.04 80.9032L174.68 82.0283L170.79 89.54L168.679 88.0184C165.347 85.6181 161.029 84.3965 155.832 84.3965C145.588 84.3965 139.009 89.915 138.334 98.9162C143.777 94.8871 150.399 92.7118 157.428 92.7118C168.551 92.7118 175.741 98.434 175.741 107.285C175.741 117.208 167.201 123.884 154.482 123.884L154.471 123.894Z" fill="white"/>
</svg>
