<svg width="1000" height="162" viewBox="0 0 1000 162" fill="none" xmlns="http://www.w3.org/2000/svg">
<path d="M66.5763 89.9635H56.1986L48.1061 63.2904H18.1235L9.68426 89.9635H0L27.0198 5.94136H39.5565L66.5763 89.9635ZM39.6747 35.1281C37.5078 28.0599 35.7979 21.5591 33.7491 13.5848H32.0392C30.1008 21.567 28.3909 27.9496 26.2239 35.0178L20.0698 55.5367H45.947L39.6747 35.1281Z" fill="white"/>
<path d="M97.3232 89.9635H87.4026V5.94136H97.3232V89.9635Z" fill="white"/>
<path d="M199.682 89.9635C190.581 85.9527 181.487 82.722 172.489 79.9877C162.119 86.2521 147.541 88.6949 126.116 89.869C126.116 89.869 125.627 86.4413 123.082 83.2184C141.568 82.9269 154.586 81.4533 163.978 77.545C157.911 75.7878 151.843 74.4167 145.878 73.0456C144.704 74.5113 143.333 75.9769 141.868 77.6474L136.194 73.4396C140.402 69.3342 144.31 64.9294 147.344 60.8162C138.148 60.9107 129.536 61.0132 122.2 61.2102V54.0711C125.328 54.1657 132.767 54.2681 151.552 54.6542C152.821 52.503 153.806 50.6434 154.294 48.9808C154.783 47.4127 154.688 46.9241 155.468 46.9241C155.665 46.9241 155.862 46.9241 156.248 47.0187C158.108 47.3102 159.771 47.7988 162.316 48.4843C163.001 48.6813 163.293 49.0753 163.293 49.5639C163.293 49.9578 163.001 50.4464 162.316 50.9349C161.047 51.912 160.551 52.5976 160.165 53.2831L159.282 54.7488C177.279 54.7488 196.065 54.5518 210.248 54.0632V61.2023C203.984 61.0053 196.648 60.9107 188.926 60.9107C186.184 66.7812 182.858 71.5721 178.753 75.2914C187.169 77.6395 195.679 80.3817 204.283 83.6045L199.682 89.9635ZM131.498 46.1362V23.2454H152.434V14.9322C143.333 15.0268 134.335 15.2237 125.824 15.4207V7.88767C138.834 8.28166 152.434 8.57321 166.13 8.57321C179.825 8.57321 193.622 8.28166 206.829 7.88767V15.4207C197.924 15.2237 188.634 15.0268 179.336 14.9322V23.2454H200.17V46.1362H131.498ZM152.434 29.2104H138.448V40.1712H152.434V29.2104ZM168.375 60.7138C164.073 60.7138 159.668 60.7138 155.366 60.8083C153.703 63.1565 152.04 65.5047 149.984 68.0498C156.831 69.5155 164.073 71.1781 171.504 73.2347C175.711 70.1065 178.84 65.9932 181.282 60.8083C177.075 60.7138 172.67 60.7138 168.367 60.7138H168.375ZM172.583 14.9243H159.18V23.2375H172.583V14.9243ZM172.583 29.2104H159.18V40.1712H172.583V29.2104ZM193.228 29.2104H179.336V40.1712H193.228V29.2104Z" fill="white"/>
<path d="M231.579 89.8611C231.973 74.0148 232.265 60.0203 232.265 49.6505C232.265 45.8367 232.265 42.409 232.17 39.6747C229.53 44.2765 226.591 48.8704 223.463 52.6842C223.463 52.6842 222.486 48.1849 220.035 44.6626C228.837 33.4103 235.393 20.3062 238.915 7.4858C239.404 5.82316 238.915 4.25508 239.798 4.25508H239.995C248.119 6.01228 248.213 6.80026 248.213 7.18636C248.213 7.67491 247.725 8.2659 247.236 8.75444C246.259 9.63698 245.471 10.9056 245.085 12.0797C243.422 16.5791 241.074 22.4495 238.04 28.6115C240.389 28.9031 241.169 29.0055 241.169 29.7856C241.169 30.2741 240.775 30.9597 240.286 31.7398C239.601 32.8193 239.309 36.3416 239.309 51.0137C239.309 60.2094 239.506 73.219 239.995 89.8532H231.579V89.8611ZM273.744 89.8611C274.035 82.9111 274.335 67.2619 274.335 57.5776C264.359 57.5776 254.375 57.7746 244.793 57.9716V49.8554C254.383 50.2494 264.359 50.4385 274.437 50.4385C274.532 46.8217 274.532 43.2994 274.532 39.9742C274.532 36.6489 274.532 33.3236 274.437 30.2899H259.568C257.22 36.4519 253.989 42.6139 249.49 48.2873C249.49 48.2873 247.536 44.8596 244.305 42.8109C251.933 33.2212 256.432 18.2575 256.432 11.4099V9.7473C256.432 8.66776 256.526 8.28166 257.117 8.28166H257.409C266.022 9.36119 266.022 10.5353 266.022 10.8268C266.022 11.3154 265.73 11.9064 265.139 12.3949C264.06 13.372 263.673 14.9401 263.476 15.8226C263.082 18.2653 262.499 20.6135 261.908 23.0641H274.429C274.335 14.6485 274.035 8.68352 273.649 7.21788C273.358 6.0438 272.964 5.2637 272.964 4.77515C272.964 4.38116 273.255 4.18417 273.846 4.18417H274.043C283.239 4.86971 283.239 5.35825 283.239 5.94136C283.239 6.42991 282.845 7.11545 282.356 7.89555C281.671 8.97508 281.671 10.7323 281.576 12.3003C281.576 13.569 281.482 17.4852 281.379 23.0641C289.007 22.9696 296.737 22.8671 302.316 22.6701V30.6918C296.737 30.4948 288.912 30.4002 281.379 30.2978V50.4464C290.48 50.3518 299.377 50.1548 308.084 49.8633V57.9795C299.377 57.6879 290.378 57.5855 281.474 57.5855C281.568 68.4438 281.765 79.7907 282.057 89.869H273.744V89.8611Z" fill="white"/>
<path d="M389.671 59.0432C379.79 58.6492 371.083 58.6492 366.386 58.6492V78.4118C371.571 79.2943 377.339 79.5858 383.21 79.5858C391.231 79.5858 399.355 79.0027 405.904 78.5063C403.752 82.7141 402.87 87.0165 402.87 87.0165C398.268 87.2135 392.792 87.4105 387.118 87.4105C374.109 87.4105 359.925 86.3309 351.903 81.146C344.37 76.3551 340.753 72.3443 338.106 68.1365C334.584 75.6696 329.887 82.9111 322.354 89.8532C322.354 89.8532 320.889 86.1339 317.855 83.2027C331.258 73.416 335.955 56.1986 336.049 48.8625V47.4915C336.049 46.7114 336.144 46.4119 336.735 46.4119C336.932 46.4119 337.129 46.4119 337.42 46.5065C339.572 46.9005 342.117 47.4836 344.173 48.1691C344.756 48.4607 345.056 48.7522 345.056 49.2487C345.056 49.6427 344.764 50.1312 344.276 50.6197C343.299 51.5023 342.81 52.2824 342.519 53.551C342.125 55.6076 341.541 57.8534 340.95 60.107C344.181 68.0341 351.714 73.9991 359.05 76.5442V38.8789C349.272 38.8789 339.682 39.0759 331.369 39.3674V31.4403C340.47 31.8343 351.029 32.1259 361.698 32.1259C372.367 32.1259 383.218 31.8343 392.902 31.4403V39.3674C384.589 39.0759 375.488 38.8789 366.394 38.8789V51.8884C370.996 51.8884 379.695 51.7938 389.679 51.4944V59.0275L389.671 59.0432ZM393.879 31.9447C394.273 27.9338 394.273 24.2146 394.273 22.4574V21.2833H329.611V22.3628C329.611 24.12 329.611 27.7447 330.005 31.9525H321.495C321.889 28.3357 321.889 22.7568 321.889 18.8406V14.4358H357.301V12.6786C357.301 10.7244 357.206 8.86476 356.907 7.39912C356.615 6.13047 356.324 5.24794 356.324 4.75939C356.324 4.46784 356.521 4.27084 357.104 4.27084H357.396C366.197 4.95639 367.08 5.53949 367.08 6.22503C367.08 6.71358 366.686 7.39912 366.103 8.08466C365.126 9.16419 365.126 11.0159 365.126 14.4436H402.003V16.7918C402.003 20.5111 402.003 27.5556 402.397 31.9525H393.887L393.879 31.9447Z" fill="white"/>
<path d="M501.793 60.7138C493.18 60.5168 483.984 60.4222 475.088 60.3198C475.971 63.842 477.342 67.7583 478.902 70.7841C482.519 68.6329 485.749 66.3793 488.389 63.645C489.272 62.7625 489.366 61.5884 489.957 61.5884H490.154C494.457 63.1565 497.199 64.2281 497.199 65.2052C497.199 65.6938 496.805 66.0878 496.025 66.3793C494.945 66.7733 494.165 67.3564 493.283 68.1444C490.052 70.9811 486.435 73.5263 482.519 75.8745C484.772 78.8057 490.052 82.6274 492.794 82.6274C494.457 82.6274 496.71 81.5479 497.585 69.0269C500.619 72.1552 503.747 73.5263 503.747 73.5263C501.887 84.7786 498.759 89.8611 493.18 89.8611C492.101 89.8611 485.064 89.7665 476.357 79.0027C469.801 82.0364 462.37 84.5816 453.466 86.4334C453.466 86.4334 452.292 83.3051 449.55 80.7599C458.84 78.7033 466.373 76.6546 473.126 73.6208C470.975 69.5155 469.312 64.8191 468.335 60.3198H446.516V67.1673C452.583 66.5842 459.139 65.5047 464.419 64.4251V70.0986C458.942 71.0757 452.875 71.8558 446.516 72.7383V78.9003C446.516 87.0244 443.774 89.6641 430.378 89.6641H427.344C427.344 89.6641 427.053 85.7478 424.705 82.131C429.007 82.525 432.143 82.7141 434.294 82.7141C439.282 82.7141 439.771 81.4455 439.771 77.3322V73.613C434.681 74.1961 429.598 74.5901 425.682 74.8816C424.311 75.0786 422.94 75.3702 421.963 76.0557C421.182 76.5442 420.591 76.9382 420.103 76.9382C419.811 76.9382 418.834 76.9382 417.266 69.2082C417.266 69.0112 417.172 68.9166 417.172 68.7196C417.172 68.4281 417.369 68.2311 418.054 68.2311C418.251 68.2311 418.543 68.2311 418.937 68.3256C420.016 68.5226 421.868 68.5226 424.413 68.5226C428.424 68.5226 433.9 68.3256 439.771 67.9395L439.865 60.4064C432.435 60.4064 424.996 60.501 417.66 60.698V53.945C424.902 54.2366 432.332 54.339 439.865 54.4336V49.6427C434.878 50.1312 428.519 50.8167 422.065 51.0137C422.065 51.0137 421.576 47.6885 419.622 44.9463C435.863 44.7493 450.929 42.7951 453.371 41.818C453.955 41.621 454.151 41.227 454.545 41.227C455.231 41.227 461.685 44.9463 461.685 46.2149C461.685 46.7035 461.196 47.192 460.51 47.192H460.416C459.927 47.0975 459.336 47.0975 458.753 47.0975C458.17 47.0975 457.674 47.0975 457.091 47.2945C455.136 47.783 450.141 48.5631 446.524 48.9571V54.536C451.315 54.6306 456.311 54.6306 461.196 54.6306H467.161C466.381 49.4457 465.987 45.1433 465.593 43.1812C465.396 42.2041 465.01 41.3216 465.01 40.833C465.01 40.5415 465.104 40.3445 465.498 40.3445H465.695C473.228 41.424 474.797 41.7156 474.797 42.6927C474.797 42.9842 474.6 43.4728 474.213 44.0638C473.725 44.8439 473.236 45.7264 473.236 47.192C473.236 49.5402 473.528 51.8884 473.922 54.5281C483.118 54.4336 492.707 54.2366 501.801 53.945V60.698L501.793 60.7138ZM500.808 40.1633C486.916 39.7693 473.126 39.6747 459.423 39.6747C445.72 39.6747 432.127 39.7693 418.629 40.1633V33.6073C430.859 34.0013 443.183 34.1904 455.412 34.2928V28.9109C445.925 28.9109 436.729 29.1079 428.802 29.3049V23.1429C435.752 23.4345 443.38 23.726 451.598 23.726H455.412V19.0297C445.042 19.0297 434.476 19.2267 422.837 19.5182V13.0647C426.753 13.1592 430.567 13.3562 434.184 13.4587C437.903 13.5532 441.52 13.5532 445.042 13.6557C443.285 11.1105 441.426 8.86476 438.975 6.51658L444.751 4.16841C447.879 7.00513 450.424 10.0388 452.875 13.6557C455.129 13.6557 457.374 13.7502 459.525 13.7502C461.677 13.7502 464.025 13.6557 466.176 13.6557C468.721 10.622 470.581 7.98222 471.361 6.21715C471.944 4.64907 471.944 4.16053 472.44 4.16053C472.535 4.16053 472.732 4.16053 472.929 4.25508C474.789 4.64907 476.94 5.13762 478.894 5.82316C479.477 6.02016 479.777 6.31171 479.777 6.7057C479.777 7.09969 479.485 7.4858 478.799 7.97434C477.334 9.05387 477.034 9.43998 476.357 10.4171C475.671 11.4966 474.891 12.4737 473.914 13.6478C481.053 13.5532 488.492 13.3562 496.513 13.0647V19.5182C484.189 19.2267 473.031 19.0297 462.473 19.0297V23.726C472.062 23.6315 481.746 23.529 490.454 23.1429V29.3049C481.841 29.0134 471.96 28.9109 462.473 28.9109V34.2928C474.899 34.2928 488.003 34.0013 500.823 33.6073V40.1633H500.808ZM491.809 53.4722C487.31 50.2415 483.393 47.9958 478.208 45.6476L482.314 40.9512C487.105 42.9054 491.116 44.9621 496.009 48.0903L491.801 53.4722H491.809Z" fill="white"/>
<path d="M601.007 35.1911C597.8 34.9941 589.983 34.8917 580.362 34.8917V35.593C580.362 61.4466 572.246 76.4733 551.703 87.702C549.497 84.9993 546.897 82.6905 544.485 80.5866C565.832 72.9747 572.246 57.9401 572.246 35.6954V34.8917C564.429 34.9941 556.014 35.1911 547.897 35.3881C547.897 44.4105 548.197 53.5274 548.701 57.7352L539.285 57.9322C539.687 53.7244 539.986 44.8045 539.986 35.4827C530.869 35.7821 523.352 36.0815 520.444 36.4834L520.342 27.5635C523.147 27.8629 530.459 27.9654 539.986 27.9654C539.884 19.8492 539.584 12.5367 538.985 9.72366C538.788 8.82536 538.481 8.12406 538.481 7.72219C538.481 7.42276 538.583 7.32032 539.08 7.32032H539.285C549.505 7.72219 550.206 7.91918 550.206 8.72292C550.206 9.02235 550.009 9.52666 549.607 10.0231C548.607 11.2287 548.402 11.6306 547.905 27.9575C555.517 27.9575 563.941 27.855 572.254 27.5556C572.254 20.645 572.151 13.4272 571.253 9.51878C571.056 8.81748 570.749 8.11618 570.749 7.61187C570.749 7.31244 570.851 7.10757 571.348 7.10757H571.545C581.363 7.407 582.765 7.61187 582.765 8.51017C582.765 8.8096 582.568 9.21147 582.167 9.71578C580.866 11.5202 580.661 12.521 580.362 27.4532C589.077 27.1537 597.501 26.8543 600.905 26.35L601.007 35.1675V35.1911Z" fill="white"/>
<path d="M674.021 89.9635C659.507 82.6905 635.946 74.0621 619.919 70.0198L623.772 62.6364C640.43 66.6709 663.021 74.1094 678.371 81.2721L674.013 89.9635H674.021ZM669.159 29.0843C658.9 24.7425 641.58 18.7224 630.927 15.9881L634.362 8.91204C645.961 11.7251 661.358 16.0826 672.674 20.8026L669.151 29.0764L669.159 29.0843ZM655.338 53.8662C645.165 48.5237 632.369 43.1261 621.707 39.6984L624.828 32.6302C635.174 35.8688 648.483 40.7543 659.065 45.5924L655.33 53.8741L655.338 53.8662Z" fill="white"/>
<path d="M719.905 88.5924C718.313 87.1032 715.146 84.4319 713.073 83.1475L712.065 82.525L713.199 82.1704C724.759 78.5378 735.019 71.6194 742.859 62.1636C749.982 53.5747 754.694 43.3231 756.121 33.3079C756.223 32.8114 756.247 32.315 756.278 31.8343C756.341 30.8021 756.412 29.628 757.46 29.628C757.594 29.628 757.878 29.628 758.122 29.7856C767.822 33.2369 767.822 33.8594 767.822 34.5765C767.822 35.2936 767.129 35.9712 766.719 36.3022C765.947 36.9877 765.379 37.6023 764.686 39.5644C756.83 60.8871 746.704 76.5364 720.512 88.6791L720.181 88.8367L719.913 88.5845L719.905 88.5924ZM710.528 52.96C708.992 47.1842 705.406 39.0207 702.381 34.3795L702.01 33.8122L710.071 30.8178L710.308 31.1803C713.255 35.6954 717.029 43.2837 719.283 49.225L719.464 49.7057L710.694 53.5747L710.528 52.96ZM729.96 48.4922C729.022 42.1569 726.138 33.9225 724.003 29.9274L723.672 29.3128L731.748 27.3507L731.953 27.6896C734.743 32.2362 737.58 40.4627 739.029 46.1755L739.163 46.6956L730.039 49.0911L729.952 48.4922H729.96Z" fill="white"/>
<path d="M793.431 88.1906C794.235 78.2699 794.732 57.5303 794.732 39.6905C794.732 25.9639 794.432 13.8369 793.731 9.73154C793.628 9.03023 793.03 8.2265 793.03 7.82463C793.03 7.5252 793.234 7.32032 793.936 7.32032H794.133C805.054 7.72219 805.456 7.82463 805.456 8.62049C805.456 8.91992 805.259 9.42422 804.755 10.1255C803.455 12.2294 802.95 13.0332 802.753 39.2886L807.26 34.3795C814.872 37.5866 826.101 43.394 834.012 48.1061L829.3 55.8204C821.988 50.407 811.161 44.5996 802.745 40.9906C802.745 44.899 802.643 48.9098 802.643 53.0152C802.643 66.9467 802.942 80.8702 803.746 87.5838L793.424 88.1827L793.431 88.1906Z" fill="white"/>
<path d="M933.487 16.3269C927.238 16.3269 923.046 20.5584 923.046 26.8543C923.046 33.1503 927.246 37.3817 933.487 37.3817C939.728 37.3817 943.928 33.1503 943.928 26.8543C943.928 20.5584 939.728 16.3269 933.487 16.3269Z" fill="white"/>
<path d="M971.081 67.8371C966.708 67.8371 962.603 69.3973 959.419 72.2498C960.979 75.7878 964.565 77.7971 969.395 77.7971C974.485 77.7971 977.897 75.5199 977.897 72.1394C977.897 68.3965 973.626 67.8371 971.081 67.8371Z" fill="white"/>
<path d="M995.966 26.7755L948.151 1.00861C946.922 0.346711 945.535 0 944.117 0H873.6C869.148 0 865.532 3.37255 865.532 7.53308V60.8319C865.532 63.519 867.068 66.009 869.566 67.3564L917.388 93.1233C918.618 93.7852 920.004 94.1319 921.423 94.1319H991.931C996.383 94.1319 1000 90.7594 1000 86.5988V33.2921C1000 30.6051 998.463 28.1151 995.966 26.7676V26.7755ZM910.966 42.3775H881.843V39.6668C881.843 29.1946 887.295 27.1774 896.286 25.0814C903.473 23.403 905.301 22.7174 905.301 20.4086C905.301 17.0282 901.054 16.319 897.5 16.319C893.347 16.319 889.975 17.2804 887.209 19.2503L885.814 20.2432L883.167 15.3183L884.27 14.5461C887.879 12.0324 892.197 10.8111 897.46 10.8111C906.12 10.8111 911.092 14.3806 911.092 20.6135C911.092 27.4611 905.112 28.8164 897.547 30.542C890.889 32.0471 888.257 33.0005 887.674 36.9956H910.966V42.3775ZM946.378 82.8008H917.254V80.0901C917.254 69.6179 922.707 67.5928 931.698 65.5047C938.884 63.8263 940.713 63.1407 940.713 60.8319C940.713 57.4515 936.465 56.7345 932.912 56.7345C928.759 56.7345 925.386 57.6958 922.621 59.6657L921.226 60.6586L918.578 55.7337L919.681 54.9615C923.29 52.4479 927.608 51.2265 932.872 51.2265C941.532 51.2265 946.504 54.796 946.504 61.0289C946.504 67.8765 940.523 69.2318 932.959 70.9575C926.3 72.4625 923.669 73.416 923.085 77.411H946.378V82.8008ZM933.487 42.8739C923.929 42.8739 917.254 36.2864 917.254 26.8543C917.254 17.4222 923.929 10.8347 933.487 10.8347C943.045 10.8347 949.719 17.4222 949.719 26.8543C949.719 36.2864 943.045 42.8739 933.487 42.8739ZM969.387 83.2972C959.254 83.2972 952.706 77.0879 952.706 67.4825C952.706 57.877 959.608 51.2501 970.293 51.2501C974.864 51.2501 978.867 52.3375 981.869 54.402L982.972 55.1585L980.356 60.2094L978.937 59.1851C976.7 57.5697 973.792 56.7502 970.301 56.7502C963.414 56.7502 958.994 60.4616 958.537 66.5133C962.193 63.8026 966.645 62.3449 971.373 62.3449C978.851 62.3449 983.689 66.1902 983.689 72.1473C983.689 78.8215 977.945 83.3051 969.395 83.3051L969.387 83.2972Z" fill="white"/>
<path d="M21.2107 152.083L18.9758 145.474H7.13642L4.94966 152.083H1L10.5273 123.626H15.5848L25.1122 152.092H21.2107V152.083ZM17.7812 141.939L13.0127 127.903L8.32131 141.939H17.7812Z" fill="white"/>
<path d="M33.5895 123.626H29.8132V152.092H33.5895V123.626Z" fill="white"/>
<path d="M66.0826 152.083L60.9962 141.63H53.0102V152.083H49.234V123.626H60.5338C63.1156 123.626 65.1964 124.406 66.8918 126.015C68.7511 127.758 69.6759 129.926 69.7144 132.652C69.7144 134.993 68.8281 137.266 67.2868 138.895C66.5547 139.665 65.7358 140.272 64.8303 140.706L70.3887 152.092H66.073L66.0826 152.083ZM60.6205 138.066C62.133 138.066 63.6647 137.334 64.6184 136.159C65.4083 135.215 65.8803 133.876 65.8418 132.652C65.8418 131.178 65.312 129.743 64.3872 128.712C63.472 127.758 62.133 127.238 60.6205 127.238H53.0199V138.066H60.6205Z" fill="white"/>
<path d="M83.9813 152.67C80.7542 152.67 77.7582 151.35 75.9664 149.135C74.3576 147.092 73.5099 144.443 73.5099 141.495C73.5099 138.326 74.3576 135.59 75.9664 133.577C77.8064 131.323 80.5904 130.08 83.8272 130.08C87.064 130.08 89.559 131.217 91.4086 133.461C93.1137 135.59 93.8844 138.586 93.711 142.363V142.497H77.5559C77.6619 144.231 78.1339 145.696 78.972 146.842C80.0317 148.22 81.8427 149.048 83.8272 149.048C85.3396 149.048 86.5534 148.711 87.536 148.017C88.5379 147.324 89.27 146.476 89.7613 145.416L89.8191 145.301L93.4509 146.572L93.3931 146.717C92.5839 148.566 91.2159 150.146 89.5397 151.167C87.9406 152.14 85.9754 152.68 83.991 152.68L83.9813 152.67ZM89.848 139.318C89.7035 137.661 89.3182 136.515 88.5957 135.6C87.6034 134.28 85.8694 133.5 83.9621 133.5H83.6634C81.7368 133.5 80.0798 134.271 79.0009 135.677C78.2591 136.66 77.8256 137.816 77.6426 139.318H89.848Z" fill="white"/>
<path d="M114.076 161.475V150.252C112.428 151.832 110.203 152.67 107.612 152.67C104.654 152.67 101.947 151.408 100.185 149.212C98.6047 147.208 97.8051 144.559 97.8051 141.332C97.8051 139.145 98.2193 136.005 100.185 133.5C101.89 131.323 104.587 130.08 107.573 130.08C110.232 130.08 112.785 131.12 114.471 132.864V130.658H117.852V161.465H114.085L114.076 161.475ZM108.113 133.538C106.003 133.538 104.269 134.348 103.219 135.821C102.265 137.132 101.755 139.039 101.755 141.332C101.755 143.624 102.246 145.609 103.171 146.881C104.202 148.335 105.965 149.173 108.026 149.173C110.088 149.173 111.745 148.431 112.804 147.073C113.873 145.802 114.461 143.759 114.461 141.332C114.461 139.656 114.172 137.305 112.814 135.629C111.802 134.29 110.088 133.529 108.113 133.529V133.538Z" fill="white"/>
<path d="M132.36 152.632C130.173 152.632 128.333 152.005 126.878 150.763C124.085 148.518 123.738 144.78 123.777 141.062V130.668H127.591V140.946C127.591 143.673 127.851 146.399 129.768 147.921C130.674 148.653 131.849 149.038 133.179 149.038C133.304 149.038 133.419 149.038 133.545 149.038C134.816 149 135.953 148.576 136.82 147.825C137.697 147.092 138.332 145.927 138.612 144.54C138.814 143.673 138.843 142.536 138.843 141.63V130.668H142.658V152.092H139.238V149.636C139.065 149.857 138.872 150.079 138.66 150.291C137.35 151.668 135.375 152.516 133.246 152.603C132.957 152.622 132.658 152.632 132.369 152.632H132.36Z" fill="white"/>
<path d="M149.363 130.668H153.139V152.092H149.363V130.668ZM149.363 123.51H153.139V127.402H149.363V123.51Z" fill="white"/>
<path d="M159.844 152.083V130.668H163.263V133.413C163.707 132.768 164.236 132.228 164.911 131.718C166.182 130.706 167.868 130.128 169.65 130.08C169.747 130.08 169.853 130.08 169.959 130.08C170.903 130.08 171.827 130.244 172.723 130.562L172.82 130.6V134.193L172.627 134.116C171.789 133.808 170.854 133.635 169.92 133.635C169.747 133.635 169.573 133.635 169.4 133.654C167.83 133.693 166.442 134.232 165.498 135.176C163.793 136.766 163.658 138.827 163.658 141.573V152.083H159.844Z" fill="white"/>
<path d="M185.882 152.67C182.655 152.67 179.659 151.35 177.868 149.135C176.259 147.092 175.411 144.443 175.411 141.495C175.411 138.326 176.259 135.59 177.868 133.577C179.708 131.323 182.492 130.08 185.728 130.08C188.965 130.08 191.46 131.217 193.31 133.461C195.015 135.59 195.785 138.586 195.612 142.363V142.497H179.457C179.563 144.231 180.035 145.696 180.873 146.842C181.933 148.22 183.744 149.048 185.728 149.048C187.241 149.048 188.455 148.711 189.437 148.017C190.439 147.324 191.171 146.476 191.662 145.416L191.72 145.301L195.352 146.572L195.294 146.717C194.485 148.566 193.117 150.146 191.441 151.167C189.842 152.14 187.877 152.68 185.892 152.68L185.882 152.67ZM191.749 139.318C191.605 137.661 191.219 136.515 190.497 135.6C189.505 134.28 187.771 133.5 185.863 133.5H185.565C183.638 133.5 181.981 134.271 180.902 135.677C180.16 136.66 179.727 137.816 179.544 139.318H191.749Z" fill="white"/>
<path d="M225.533 152.083L225.572 139.145C225.572 136.881 225.36 135.764 224.059 134.637C223.298 133.914 222.248 133.5 221.179 133.5C219.83 133.5 218.539 134.097 217.73 135.089C216.882 136.168 216.709 137.199 216.709 138.519L216.671 152.083H212.904L212.942 139.145C212.942 136.891 212.73 135.764 211.43 134.637C210.669 133.914 209.619 133.5 208.55 133.5C207.201 133.5 205.91 134.097 205.101 135.089C204.253 136.168 204.08 137.199 204.08 138.519V152.083H200.265V130.668H203.685V132.681C205.111 131.053 207.191 130.119 209.446 130.119C211.391 130.119 213.183 130.735 214.359 131.804C214.908 132.286 215.36 132.826 215.736 133.452C215.755 133.423 215.775 133.404 215.794 133.375C217.152 131.352 219.512 130.119 222.075 130.119C224.021 130.119 225.813 130.735 226.988 131.804C229.184 133.77 229.348 135.812 229.348 138.952L229.309 152.092H225.533V152.083Z" fill="white"/>
<path d="M244.569 152.67C241.341 152.67 238.345 151.35 236.554 149.135C234.945 147.092 234.097 144.443 234.097 141.495C234.097 138.326 234.945 135.59 236.554 133.577C238.394 131.323 241.178 130.08 244.414 130.08C247.651 130.08 250.146 131.217 251.996 133.461C253.701 135.59 254.472 138.586 254.298 142.363V142.497H238.143C238.249 144.231 238.721 145.696 239.559 146.842C240.619 148.22 242.43 149.048 244.414 149.048C245.927 149.048 247.141 148.711 248.123 148.017C249.125 147.324 249.857 146.476 250.349 145.416L250.406 145.301L254.038 146.572L253.98 146.717C253.171 148.566 251.803 150.146 250.127 151.167C248.528 152.14 246.563 152.68 244.578 152.68L244.569 152.67ZM250.445 139.318C250.3 137.661 249.915 136.515 249.193 135.6C248.2 134.28 246.466 133.5 244.559 133.5H244.26C242.334 133.5 240.677 134.271 239.598 135.677C238.856 136.66 238.423 137.816 238.239 139.318H250.445Z" fill="white"/>
<path d="M274.008 152.083V141.804C274.008 138.634 273.642 136.236 271.869 134.839C270.945 134.087 269.692 133.693 268.257 133.693H268.055C266.764 133.779 265.646 134.193 264.818 134.916C263.893 135.687 263.257 136.872 263.026 138.239C262.756 139.482 262.756 141.11 262.756 142.671V152.092H258.98V130.668H262.361V133.163C262.487 133.018 262.612 132.874 262.747 132.72L262.968 132.479C264.249 131.092 266.224 130.253 268.392 130.157C268.681 130.138 268.97 130.128 269.259 130.128C271.445 130.128 273.295 130.754 274.75 131.997C277.505 134.242 277.852 137.989 277.813 141.698V152.092H273.998L274.008 152.083Z" fill="white"/>
<path d="M292.754 152.41C292.041 152.41 291.319 152.362 290.722 152.285C288.679 151.948 287.369 151.09 286.464 149.51C285.664 148.152 285.684 146.601 285.693 144.809V133.818H281.387V130.668H285.693V124.801H289.46V130.668H295.837V133.818H289.46V144.578C289.441 145.869 289.431 146.803 289.864 147.526C290.279 148.345 291.126 148.855 292.215 148.942C292.562 148.981 292.928 149 293.303 149C294.064 149 294.903 148.923 295.664 148.788L295.837 148.759V152.054L295.731 152.083C294.951 152.294 293.881 152.41 292.735 152.41H292.754Z" fill="white"/>
<path d="M309.121 152.67C306.154 152.67 303.948 151.861 302.176 150.127C301.078 149.029 300.288 147.699 299.825 146.187L299.787 146.052L303.226 145.031L303.274 145.156C303.669 146.245 304.189 147.102 304.844 147.719C305.865 148.701 307.387 149.241 309.131 149.241C310.403 149.241 312.137 148.923 313.004 148.326C313.784 147.805 314.198 147.064 314.198 146.177C314.198 144.472 312.589 143.856 310.306 143.181C307.792 142.478 306.819 142.199 305.692 141.852C304.526 141.428 302.946 140.85 301.877 139.742C300.837 138.74 300.471 137.17 300.471 136.12C300.471 133.914 301.887 131.853 304.073 130.86C305.345 130.321 306.713 130.061 308.274 130.061C308.408 130.061 308.543 130.061 308.678 130.061C310.287 130.061 311.848 130.417 313.196 131.092C315.229 132.113 316.992 134.136 317.695 136.265L317.743 136.409L314.14 137.295L314.092 137.18C313.158 134.771 311.231 133.481 308.514 133.432H308.274C306.174 133.432 304.006 134.386 304.006 135.985C304.006 137.411 305.133 137.989 307.069 138.509C308.264 138.875 309.622 139.241 311.298 139.684C315.479 140.812 317.782 143.124 317.782 146.206C317.782 148.152 316.635 150.156 314.93 151.187C313.447 152.188 311.607 152.661 309.141 152.661L309.121 152.67Z" fill="white"/>
<path d="M331.856 152.044V123.587L341.547 123.626C345.362 123.626 348.541 124.926 350.728 127.392C353.059 129.897 354.282 133.548 354.282 137.931C354.282 142.083 352.982 145.869 350.718 148.326C348.541 150.724 345.246 152.054 341.451 152.054H331.837L331.856 152.044ZM341.47 148.47C344.158 148.431 346.402 147.497 347.934 145.782C349.851 143.567 350.294 140.291 350.323 137.931C350.362 134.598 349.504 131.747 347.895 129.887C346.364 128.144 344.283 127.277 341.509 127.238L335.748 127.277V148.393L341.47 148.47Z" fill="white"/>
<path d="M368.935 152.67C365.707 152.67 362.711 151.35 360.92 149.135C359.311 147.092 358.463 144.443 358.463 141.495C358.463 138.326 359.311 135.59 360.92 133.577C362.76 131.323 365.544 130.08 368.78 130.08C372.017 130.08 374.512 131.217 376.362 133.461C378.067 135.59 378.838 138.586 378.664 142.363V142.497H362.509C362.615 144.231 363.087 145.696 363.925 146.842C364.985 148.22 366.796 149.048 368.78 149.048C370.293 149.048 371.507 148.711 372.489 148.017C373.491 147.324 374.223 146.476 374.715 145.416L374.772 145.301L378.404 146.572L378.346 146.717C377.537 148.566 376.169 150.146 374.493 151.167C372.894 152.14 370.929 152.68 368.944 152.68L368.935 152.67ZM374.801 139.318C374.657 137.661 374.271 136.515 373.549 135.6C372.557 134.28 370.823 133.5 368.915 133.5H368.617C366.69 133.5 365.033 134.271 363.954 135.677C363.212 136.66 362.779 137.816 362.596 139.318H374.801Z" fill="white"/>
<path d="M386.236 152.083V133.818H381.545V130.668H386.236V129.993C386.236 128.452 386.583 126.285 388.24 124.762C389.627 123.568 391.39 123.009 393.808 123.009C394.424 123.009 395.079 123.048 395.831 123.115H395.966V126.477L395.802 126.458C395.282 126.381 394.761 126.342 394.261 126.342C393.673 126.342 393.114 126.39 392.604 126.496C390.773 126.853 390.022 127.797 390.022 129.762V130.677H395.966V133.827H390.022V152.102H386.246L386.236 152.083Z" fill="white"/>
<path d="M400.908 130.668H404.684V152.092H400.908V130.668ZM400.908 123.51H404.684V127.402H400.908V123.51Z" fill="white"/>
<path d="M426.445 152.083V141.804C426.445 138.634 426.079 136.236 424.307 134.839C423.382 134.087 422.13 133.693 420.694 133.693H420.492C419.201 133.779 418.084 134.193 417.255 134.916C416.33 135.687 415.695 136.872 415.463 138.239C415.194 139.482 415.194 141.11 415.194 142.671V152.092H411.417V130.668H414.799V133.163C414.924 133.018 415.049 132.874 415.184 132.72L415.406 132.479C416.687 131.092 418.662 130.253 420.829 130.157C421.118 130.138 421.407 130.128 421.696 130.128C423.883 130.128 425.733 130.754 427.187 131.997C429.942 134.242 430.289 137.989 430.251 141.698V152.092H426.436L426.445 152.083Z" fill="white"/>
<path d="M436.58 130.668H440.356V152.092H436.58V130.668ZM436.58 123.51H440.356V127.402H436.58V123.51Z" fill="white"/>
<path d="M456.068 152.41C455.355 152.41 454.632 152.362 454.035 152.285C451.993 151.948 450.683 151.09 449.777 149.51C448.978 148.152 448.987 146.601 449.007 144.809V133.818H444.701V130.668H449.007V124.801H452.783V130.668H459.16V133.818H452.783V144.578C452.764 145.869 452.754 146.803 453.187 147.526C453.602 148.345 454.459 148.855 455.538 148.942C455.885 148.981 456.251 149 456.627 149C457.388 149 458.226 148.923 458.987 148.788L459.16 148.759V152.054L459.054 152.083C458.274 152.294 457.205 152.41 456.058 152.41H456.068Z" fill="white"/>
<path d="M464.699 130.668H468.476V152.092H464.699V130.668ZM464.699 123.51H468.476V127.402H464.699V123.51Z" fill="white"/>
<path d="M484.332 152.67C481.114 152.67 478.33 151.418 476.471 149.135C474.843 147.064 474.015 144.443 474.015 141.332C474.015 138.22 474.862 135.581 476.471 133.577C478.263 131.352 481.134 130.08 484.332 130.08C487.53 130.08 490.391 131.323 492.193 133.577C493.85 135.581 494.688 138.201 494.688 141.332C494.688 144.463 493.869 147.044 492.193 149.135C490.372 151.418 487.578 152.67 484.332 152.67ZM484.332 133.654C482.28 133.654 480.527 134.463 479.515 135.86C478.523 137.122 478.013 138.962 478.013 141.332C478.013 143.702 478.504 145.532 479.506 146.842C480.527 148.229 482.328 149.058 484.322 149.058C486.316 149.058 488.156 148.229 489.178 146.852C490.189 145.541 490.671 143.74 490.671 141.341C490.671 138.943 490.17 137.132 489.178 135.879C488.166 134.473 486.393 133.664 484.322 133.664L484.332 133.654Z" fill="white"/>
<path d="M514.898 152.083V141.804C514.898 138.634 514.532 136.236 512.76 134.839C511.835 134.087 510.583 133.693 509.147 133.693H508.945C507.654 133.779 506.537 134.193 505.708 134.916C504.783 135.687 504.148 136.872 503.916 138.239C503.647 139.482 503.647 141.11 503.647 142.671V152.092H499.87V130.668H503.252V133.163C503.377 133.018 503.502 132.874 503.637 132.72L503.859 132.479C505.14 131.092 507.115 130.253 509.282 130.157C509.571 130.138 509.86 130.128 510.149 130.128C512.336 130.128 514.186 130.754 515.64 131.997C518.395 134.242 518.742 137.989 518.704 141.698V152.092H514.889L514.898 152.083Z" fill="white"/>
<path d="M543.673 152.67C539.801 152.67 536.959 151.485 534.724 148.942C533.192 147.227 532.498 145.031 532.229 143.875L532.2 143.74L535.995 142.68L536.034 142.825C536.313 144 536.718 145.272 537.768 146.524C539.04 148.085 541.352 149.058 543.798 149.058C545.754 149.058 547.748 148.528 548.875 147.719C549.877 146.977 550.455 145.773 550.455 144.395C550.455 143.345 550.06 142.42 549.328 141.717C548.519 140.946 547.459 140.397 545.985 139.993L540.822 138.461C538.943 137.883 536.997 137.17 535.523 135.812C534.146 134.617 533.327 132.691 533.327 130.658C533.327 128.057 535.022 125.456 537.556 124.194C539.55 123.173 541.65 123.048 543.259 123.048C545.465 123.048 547.565 123.568 549.164 124.512C551.467 125.841 553.22 128.019 554.231 130.812L554.289 130.957L550.532 131.968L550.484 131.853C549.655 129.887 548.654 128.625 547.257 127.768C546.11 127.074 544.598 126.651 543.22 126.651H542.98C541.631 126.651 540.311 126.959 539.338 127.489C538.095 128.202 537.296 129.492 537.296 130.764C537.296 131.631 537.623 132.431 538.192 132.97C538.847 133.654 540.022 134.242 541.891 134.82L546.9 136.265C549.241 136.949 550.84 137.787 552.083 139C553.605 140.484 554.472 142.488 554.472 144.501C554.472 146.909 553.143 149.376 551.081 150.801C549.299 152.054 546.881 152.67 543.683 152.67H543.673Z" fill="white"/>
<path d="M567.602 152.632C565.415 152.632 563.576 152.005 562.121 150.763C559.327 148.518 558.98 144.78 559.019 141.062V130.668H562.834V140.946C562.834 143.673 563.094 146.399 565.011 147.921C565.916 148.653 567.092 149.038 568.421 149.038C568.546 149.038 568.662 149.038 568.787 149.038C570.059 149 571.196 148.576 572.062 147.825C572.939 147.092 573.575 145.927 573.854 144.54C574.057 143.673 574.086 142.536 574.086 141.63V130.668H577.9V152.092H574.48V149.636C574.307 149.857 574.114 150.079 573.902 150.291C572.592 151.668 570.618 152.516 568.489 152.603C568.2 152.622 567.901 152.632 567.612 152.632H567.602Z" fill="white"/>
<path d="M610.268 152.083L610.307 139.145C610.307 136.881 610.095 135.764 608.794 134.637C608.033 133.914 606.983 133.5 605.914 133.5C604.565 133.5 603.274 134.097 602.465 135.089C601.617 136.168 601.444 137.199 601.444 138.519L601.406 152.083H597.639L597.677 139.145C597.677 136.891 597.466 135.764 596.165 134.637C595.404 133.914 594.354 133.5 593.285 133.5C591.936 133.5 590.645 134.097 589.836 135.089C588.988 136.168 588.815 137.199 588.815 138.519V152.083H585V130.668H588.42V132.681C589.846 131.053 591.926 130.119 594.181 130.119C596.127 130.119 597.918 130.735 599.094 131.804C599.643 132.286 600.095 132.826 600.471 133.452C600.49 133.423 600.51 133.404 600.529 133.375C601.887 131.352 604.247 130.119 606.81 130.119C608.756 130.119 610.548 130.735 611.723 131.804C613.919 133.77 614.083 135.812 614.083 138.952L614.044 152.092H610.268V152.083Z" fill="white"/>
<path d="M645.295 152.083L645.333 139.145C645.333 136.881 645.121 135.764 643.821 134.637C643.06 133.914 642.01 133.5 640.941 133.5C639.592 133.5 638.301 134.097 637.492 135.089C636.644 136.168 636.471 137.199 636.471 138.519L636.432 152.083H632.666L632.704 139.145C632.704 136.891 632.492 135.764 631.192 134.637C630.431 133.914 629.381 133.5 628.311 133.5C626.963 133.5 625.672 134.097 624.863 135.089C624.015 136.168 623.841 137.199 623.841 138.519V152.083H620.027V130.668H623.447V132.681C624.872 131.053 626.953 130.119 629.207 130.119C631.153 130.119 632.945 130.735 634.12 131.804C634.669 132.286 635.122 132.826 635.498 133.452C635.517 133.423 635.536 133.404 635.556 133.375C636.914 131.352 639.274 130.119 641.837 130.119C643.782 130.119 645.574 130.735 646.75 131.804C648.946 133.77 649.11 135.812 649.11 138.952L649.071 152.092H645.295V152.083Z" fill="white"/>
<path d="M655.42 130.668H659.196V152.092H655.42V130.668ZM655.42 123.51H659.196V127.402H655.42V123.51Z" fill="white"/>
<path d="M674.908 152.41C674.195 152.41 673.472 152.362 672.875 152.285C670.833 151.948 669.523 151.09 668.617 149.51C667.818 148.152 667.827 146.601 667.846 144.809V133.818H663.54V130.668H667.846V124.801H671.623V130.668H678V133.818H671.623V144.578C671.603 145.869 671.594 146.803 672.027 147.526C672.442 148.345 673.299 148.855 674.378 148.942C674.725 148.981 675.091 149 675.466 149C676.227 149 677.066 148.923 677.827 148.788L678 148.759V152.054L677.894 152.083C677.114 152.294 676.044 152.41 674.898 152.41H674.908Z" fill="white"/>
</svg>
