<svg width="1000" height="157" viewBox="0 0 1000 157" fill="none" xmlns="http://www.w3.org/2000/svg">
<path d="M9.91277 148.66L6.35111 156.248H2.36394L15.9723 127.424H19.8334L33.4418 156.248H29.2892L25.7275 148.66H9.91277ZM11.4336 145.358H24.1909L17.832 131.577L11.4336 145.358Z" fill="black"/>
<path d="M40.2184 127.424H44.0322V156.248H40.2184V127.424Z" fill="black"/>
<path d="M94.7308 141.836C94.7308 150.614 88.9234 156.248 79.8932 156.248H67.0097V127.424H79.8932C88.9234 127.424 94.7308 133.066 94.7308 141.836ZM90.8303 141.836C90.8303 134.965 86.5043 130.726 79.4676 130.726H70.8235V152.939H79.4676C86.5043 152.939 90.8303 148.699 90.8303 141.828V141.836Z" fill="black"/>
<path d="M104.604 146.8C105.069 151.04 108.418 153.459 113.934 153.459C116.944 153.459 119.276 152.694 121.774 150.874L123.216 153.884C120.545 155.831 117.409 156.768 113.634 156.768C105.707 156.768 100.79 152.49 100.79 145.658C100.79 138.826 105.534 134.547 112.618 134.547C119.702 134.547 124.319 138.96 124.319 145.697C124.319 146.036 124.319 146.414 124.28 146.8H104.604ZM104.73 143.743H120.671C119.907 140.142 116.897 137.849 112.705 137.849C108.513 137.849 105.495 140.134 104.738 143.743H104.73Z" fill="black"/>
<path d="M138.133 132.853V135.06H146.698V138.109H138.133V156.256H134.484V138.109H128.551V135.06H134.484V132.562C134.484 127.983 136.903 125.651 141.694 125.651C143.727 125.651 145.555 126.077 147.289 126.967L146.272 130.016C144.83 129.299 143.475 128.961 142.033 128.961C139.323 128.961 138.133 130.19 138.133 132.861V132.853ZM155.854 128.527C155.854 129.93 154.838 130.899 153.356 130.899C151.875 130.899 150.859 129.922 150.859 128.527C150.859 127.132 151.875 126.155 153.356 126.155C154.838 126.155 155.854 127.132 155.854 128.527ZM151.528 135.06H155.177V156.256H151.528V135.06Z" fill="black"/>
<path d="M184.419 142.727V156.248H180.77V143.404C180.77 139.756 178.824 137.849 175.176 137.849C171.787 137.849 169.069 139.504 166.996 142.175V156.248H163.348V135.052H166.996V139.252C169.368 136.155 172.465 134.547 176.192 134.547C181.322 134.547 184.419 137.557 184.419 142.727Z" fill="black"/>
<path d="M191.534 128.527C191.534 127.132 192.55 126.155 194.032 126.155C195.513 126.155 196.53 127.132 196.53 128.527C196.53 129.922 195.513 130.899 194.032 130.899C192.55 130.899 191.534 129.922 191.534 128.527ZM192.212 135.06H195.86V156.256H192.212V135.06Z" fill="black"/>
<path d="M220.406 155.445C218.664 156.335 216.804 156.76 214.685 156.76C209.933 156.76 207.601 154.641 207.601 150.275V138.109H201.667V135.06H207.601V127.432H211.249V135.06H219.815V138.109H211.249V149.976C211.249 152.434 212.352 153.451 215.024 153.451C216.631 153.451 218.073 153.073 219.428 152.348L220.406 155.445Z" fill="black"/>
<path d="M226 128.527C226 127.132 227.017 126.155 228.498 126.155C229.979 126.155 230.996 127.132 230.996 128.527C230.996 129.922 229.979 130.899 228.498 130.899C227.017 130.899 226 129.922 226 128.527ZM226.678 135.06H230.326V156.256H226.678V135.06Z" fill="black"/>
<path d="M237.142 145.65C237.142 138.992 241.886 134.539 249.056 134.539C256.227 134.539 260.971 138.992 260.971 145.65C260.971 152.308 256.219 156.76 249.056 156.76C241.894 156.76 237.142 152.308 237.142 145.65ZM257.236 145.65C257.236 140.985 253.973 137.849 249.056 137.849C244.139 137.849 240.877 140.985 240.877 145.65C240.877 150.315 244.139 153.451 249.056 153.451C253.973 153.451 257.236 150.315 257.236 145.65Z" fill="black"/>
<path d="M288.857 142.727V156.248H285.209V143.404C285.209 139.756 283.263 137.849 279.614 137.849C276.226 137.849 273.507 139.504 271.435 142.175V156.248H267.787V135.052H271.435V139.252C273.807 136.155 276.904 134.547 280.631 134.547C285.76 134.547 288.857 137.557 288.857 142.727Z" fill="black"/>
<path d="M308.903 152.482L310.724 149.385C313.946 151.883 318.272 153.285 322.851 153.285C328.831 153.285 332.007 151.505 332.007 148.03C332.007 145.272 329.422 144.09 322.598 143.625C313.608 143.034 310.093 140.788 310.093 135.611C310.093 130.182 314.711 126.92 322.472 126.92C327.09 126.92 331.077 128.11 334.213 130.395L332.519 133.491C329.761 131.458 326.247 130.395 322.173 130.395C317.083 130.395 313.994 132.302 313.994 135.485C313.994 138.243 316.539 139.425 323.402 139.89C332.393 140.481 335.907 142.727 335.907 147.904C335.907 153.624 331.243 156.76 322.811 156.76C317.382 156.76 312.426 155.232 308.903 152.482Z" fill="black"/>
<path d="M363.416 135.06V156.256H359.767V152.056C357.396 155.153 354.299 156.76 350.572 156.76C345.442 156.76 342.345 153.75 342.345 148.581V135.06H345.994V147.904C345.994 151.552 347.94 153.459 351.588 153.459C354.977 153.459 357.695 151.804 359.767 149.133V135.06H363.416Z" fill="black"/>
<path d="M405.596 142.727V156.248H401.948V143.404C401.948 139.756 400.38 137.849 397.118 137.849C394.32 137.849 392.075 139.291 390.38 141.537C390.42 141.915 390.42 142.301 390.42 142.727V156.248H386.771V143.404C386.771 139.756 385.164 137.849 382.107 137.849C379.27 137.849 376.977 139.504 375.235 142.175V156.248H371.587V135.052H375.235V139.252C377.316 136.155 379.987 134.547 383.249 134.547C386.511 134.547 388.931 136.241 389.908 139.252C391.901 136.368 394.612 134.547 398.26 134.547C402.964 134.547 405.596 137.597 405.596 142.727Z" fill="black"/>
<path d="M447.43 142.727V156.248H443.782V143.404C443.782 139.756 442.214 137.849 438.951 137.849C436.154 137.849 433.908 139.291 432.214 141.537C432.254 141.915 432.254 142.301 432.254 142.727V156.248H428.605V143.404C428.605 139.756 426.998 137.849 423.94 137.849C421.104 137.849 418.811 139.504 417.069 142.175V156.248H413.421V135.052H417.069V139.252C419.149 136.155 421.821 134.547 425.083 134.547C428.345 134.547 430.764 136.241 431.741 139.252C433.735 136.368 436.446 134.547 440.094 134.547C444.798 134.547 447.43 137.597 447.43 142.727Z" fill="black"/>
<path d="M454.593 128.527C454.593 127.132 455.609 126.155 457.091 126.155C458.572 126.155 459.589 127.132 459.589 128.527C459.589 129.922 458.572 130.899 457.091 130.899C455.609 130.899 454.593 129.922 454.593 128.527ZM455.27 135.06H458.919V156.256H455.27V135.06Z" fill="black"/>
<path d="M483.456 155.445C481.715 156.335 479.855 156.76 477.736 156.76C472.992 156.76 470.66 154.641 470.66 150.275V138.109H464.726V135.06H470.66V127.432H474.308V135.06H482.873V138.109H474.308V149.976C474.308 152.434 475.411 153.451 478.082 153.451C479.69 153.451 481.132 153.073 482.495 152.348L483.472 155.445H483.456Z" fill="black"/>
<path d="M505.874 153.033H529.104V156.256H502.139V154.601C502.139 145.406 505.953 143.239 515.787 140.993C522.824 139.386 525.408 138.708 525.408 135.398C525.408 132.089 522.359 130.308 516.804 130.308C512.438 130.308 508.664 131.325 505.441 133.57L503.834 130.473C507.309 128.102 511.508 126.912 516.638 126.912C524.605 126.912 529.23 129.749 529.23 135.643C529.23 141.537 524.479 142.679 516.552 144.421C509.389 145.989 506.079 147.053 505.867 153.025L505.874 153.033Z" fill="black"/>
<path d="M535.337 141.836C535.337 133.019 541.523 126.912 550.513 126.912C559.504 126.912 565.69 133.019 565.69 141.836C565.69 150.654 559.504 156.76 550.513 156.76C541.523 156.76 535.337 150.654 535.337 141.836ZM561.876 141.836C561.876 135.012 557.259 130.308 550.513 130.308C543.768 130.308 539.151 135.012 539.151 141.836C539.151 148.66 543.768 153.364 550.513 153.364C557.259 153.364 561.876 148.66 561.876 141.836Z" fill="black"/>
<path d="M574.373 153.033H597.603V156.256H570.638V154.601C570.638 145.406 574.452 143.239 584.286 140.993C591.323 139.386 593.907 138.708 593.907 135.398C593.907 132.089 590.858 130.308 585.303 130.308C580.937 130.308 577.163 131.325 573.94 133.57L572.333 130.473C575.808 128.102 580.007 126.912 585.137 126.912C593.104 126.912 597.729 129.749 597.729 135.643C597.729 141.537 592.985 142.679 585.05 144.421C577.888 145.989 574.578 147.053 574.365 153.025L574.373 153.033Z" fill="black"/>
<path d="M632.747 146.8C632.747 152.86 627.617 156.76 619.564 156.76C609.817 156.76 603.836 151.166 603.836 142.01C603.836 132.853 610.321 126.92 620.541 126.92C624.954 126.92 628.846 127.936 631.691 129.804L630.083 132.987C627.586 131.246 624.276 130.316 620.549 130.316C612.748 130.316 607.658 134.981 607.658 142.143C607.658 142.695 607.697 143.199 607.744 143.712C611.645 140.024 616.349 138.156 621.652 138.156C628.515 138.156 632.763 141.466 632.763 146.8H632.747ZM628.933 146.84C628.933 143.452 626.136 141.545 621.132 141.545C616.128 141.545 612.141 143.199 608.375 146.548C609.903 150.827 613.93 153.372 619.611 153.372C625.293 153.372 628.941 150.74 628.941 146.84H628.933Z" fill="black"/>
<path d="M66.5763 89.9635H56.1986L48.1061 63.2904H18.1235L9.68426 89.9635H0L27.0198 5.94136H39.5565L66.5763 89.9635ZM39.6747 35.1281C37.5078 28.0599 35.7979 21.5591 33.7491 13.5848H32.0392C30.1008 21.567 28.3909 27.9496 26.2239 35.0178L20.0698 55.5367H45.947L39.6747 35.1281Z" fill="black"/>
<path d="M97.3232 89.9635H87.4026V5.94136H97.3232V89.9635Z" fill="black"/>
<path d="M199.682 89.9635C190.581 85.9527 181.487 82.722 172.489 79.9877C162.119 86.2521 147.541 88.6949 126.116 89.869C126.116 89.869 125.627 86.4413 123.082 83.2184C141.568 82.9269 154.586 81.4533 163.978 77.545C157.911 75.7878 151.843 74.4167 145.878 73.0456C144.704 74.5113 143.333 75.9769 141.868 77.6474L136.194 73.4396C140.402 69.3342 144.31 64.9294 147.344 60.8162C138.148 60.9107 129.536 61.0132 122.2 61.2102V54.0711C125.328 54.1657 132.767 54.2681 151.552 54.6542C152.821 52.503 153.806 50.6434 154.294 48.9808C154.783 47.4127 154.688 46.9241 155.468 46.9241C155.665 46.9241 155.862 46.9241 156.248 47.0187C158.108 47.3102 159.771 47.7988 162.316 48.4843C163.001 48.6813 163.293 49.0753 163.293 49.5639C163.293 49.9578 163.001 50.4464 162.316 50.9349C161.047 51.912 160.551 52.5976 160.165 53.2831L159.282 54.7488C177.279 54.7488 196.065 54.5518 210.248 54.0632V61.2023C203.984 61.0053 196.648 60.9107 188.926 60.9107C186.184 66.7812 182.858 71.5721 178.753 75.2914C187.169 77.6395 195.679 80.3817 204.283 83.6045L199.682 89.9635ZM131.498 46.1361V23.2454H152.434V14.9322C143.333 15.0268 134.335 15.2237 125.824 15.4207V7.88767C138.834 8.28166 152.434 8.57321 166.13 8.57321C179.825 8.57321 193.622 8.28166 206.829 7.88767V15.4207C197.924 15.2237 188.634 15.0268 179.336 14.9322V23.2454H200.17V46.1361H131.498ZM152.434 29.2104H138.448V40.1712H152.434V29.2104ZM168.375 60.7138C164.073 60.7138 159.668 60.7137 155.366 60.8083C153.703 63.1565 152.04 65.5047 149.984 68.0498C156.831 69.5155 164.073 71.1781 171.504 73.2347C175.711 70.1065 178.84 65.9932 181.282 60.8083C177.075 60.7137 172.67 60.7138 168.367 60.7138H168.375ZM172.583 14.9243H159.18V23.2375H172.583V14.9243ZM172.583 29.2104H159.18V40.1712H172.583V29.2104ZM193.228 29.2104H179.336V40.1712H193.228V29.2104Z" fill="black"/>
<path d="M231.579 89.8611C231.973 74.0148 232.265 60.0203 232.265 49.6505C232.265 45.8367 232.265 42.409 232.17 39.6747C229.53 44.2765 226.591 48.8704 223.463 52.6842C223.463 52.6842 222.486 48.1849 220.035 44.6626C228.837 33.4103 235.393 20.3062 238.915 7.4858C239.404 5.82316 238.915 4.25508 239.798 4.25508H239.995C248.119 6.01228 248.213 6.80026 248.213 7.18636C248.213 7.67491 247.725 8.2659 247.236 8.75444C246.259 9.63698 245.471 10.9056 245.085 12.0797C243.422 16.5791 241.074 22.4495 238.04 28.6115C240.389 28.9031 241.169 29.0055 241.169 29.7856C241.169 30.2741 240.775 30.9597 240.286 31.7398C239.601 32.8193 239.309 36.3416 239.309 51.0137C239.309 60.2094 239.506 73.219 239.995 89.8532H231.579V89.8611ZM273.744 89.8611C274.035 82.9111 274.335 67.2619 274.335 57.5776C264.359 57.5776 254.375 57.7746 244.793 57.9716V49.8554C254.383 50.2494 264.359 50.4385 274.437 50.4385C274.532 46.8217 274.532 43.2994 274.532 39.9742C274.532 36.6489 274.532 33.3236 274.437 30.2899H259.568C257.22 36.4519 253.989 42.6139 249.49 48.2873C249.49 48.2873 247.536 44.8596 244.305 42.8109C251.933 33.2212 256.432 18.2575 256.432 11.4099V9.7473C256.432 8.66776 256.526 8.28166 257.117 8.28166H257.409C266.022 9.36119 266.022 10.5353 266.022 10.8268C266.022 11.3154 265.73 11.9064 265.139 12.3949C264.06 13.372 263.673 14.9401 263.476 15.8226C263.082 18.2653 262.499 20.6135 261.908 23.0641H274.429C274.335 14.6485 274.035 8.68352 273.649 7.21788C273.358 6.0438 272.964 5.2637 272.964 4.77515C272.964 4.38116 273.255 4.18417 273.846 4.18417H274.043C283.239 4.86971 283.239 5.35825 283.239 5.94136C283.239 6.42991 282.845 7.11545 282.356 7.89555C281.671 8.97508 281.671 10.7323 281.576 12.3003C281.576 13.569 281.482 17.4852 281.379 23.0641C289.007 22.9696 296.737 22.8671 302.316 22.6701V30.6918C296.737 30.4948 288.912 30.4002 281.379 30.2978V50.4464C290.48 50.3518 299.377 50.1548 308.084 49.8633V57.9795C299.377 57.6879 290.378 57.5855 281.474 57.5855C281.568 68.4438 281.765 79.7907 282.057 89.869H273.744V89.8611Z" fill="black"/>
<path d="M389.671 59.0432C379.79 58.6492 371.083 58.6492 366.386 58.6492V78.4118C371.571 79.2943 377.339 79.5858 383.21 79.5858C391.231 79.5858 399.355 79.0027 405.904 78.5063C403.752 82.7141 402.87 87.0165 402.87 87.0165C398.268 87.2135 392.792 87.4105 387.118 87.4105C374.109 87.4105 359.925 86.3309 351.903 81.146C344.37 76.3551 340.753 72.3443 338.106 68.1365C334.584 75.6696 329.887 82.9111 322.354 89.8532C322.354 89.8532 320.889 86.1339 317.855 83.2027C331.258 73.416 335.955 56.1986 336.049 48.8625V47.4915C336.049 46.7114 336.144 46.4119 336.735 46.4119C336.932 46.4119 337.129 46.4119 337.42 46.5065C339.572 46.9005 342.117 47.4836 344.173 48.1691C344.756 48.4607 345.056 48.7522 345.056 49.2487C345.056 49.6427 344.764 50.1312 344.276 50.6197C343.299 51.5023 342.81 52.2824 342.519 53.551C342.125 55.6076 341.541 57.8534 340.95 60.107C344.181 68.0341 351.714 73.9991 359.05 76.5442V38.8789C349.272 38.8789 339.682 39.0759 331.369 39.3674V31.4403C340.47 31.8343 351.029 32.1259 361.698 32.1259C372.367 32.1259 383.218 31.8343 392.902 31.4403V39.3674C384.589 39.0759 375.488 38.8789 366.394 38.8789V51.8884C370.996 51.8884 379.695 51.7938 389.679 51.4944V59.0275L389.671 59.0432ZM393.879 31.9447C394.273 27.9338 394.273 24.2146 394.273 22.4574V21.2833H329.611V22.3628C329.611 24.12 329.611 27.7447 330.005 31.9525H321.495C321.889 28.3357 321.889 22.7568 321.889 18.8406V14.4358H357.301V12.6786C357.301 10.7244 357.206 8.86476 356.907 7.39912C356.615 6.13047 356.324 5.24794 356.324 4.75939C356.324 4.46784 356.521 4.27084 357.104 4.27084H357.396C366.197 4.95639 367.08 5.53949 367.08 6.22503C367.08 6.71358 366.686 7.39912 366.103 8.08466C365.126 9.16419 365.126 11.0159 365.126 14.4436H402.003V16.7918C402.003 20.5111 402.003 27.5556 402.397 31.9525H393.887L393.879 31.9447Z" fill="black"/>
<path d="M501.793 60.7138C493.18 60.5168 483.984 60.4222 475.088 60.3198C475.971 63.842 477.342 67.7583 478.902 70.7841C482.519 68.6329 485.749 66.3793 488.389 63.645C489.272 62.7625 489.366 61.5884 489.957 61.5884H490.154C494.457 63.1565 497.199 64.2281 497.199 65.2052C497.199 65.6938 496.805 66.0878 496.025 66.3793C494.945 66.7733 494.165 67.3564 493.283 68.1444C490.052 70.9811 486.435 73.5263 482.519 75.8745C484.772 78.8057 490.052 82.6274 492.794 82.6274C494.457 82.6274 496.71 81.5479 497.585 69.0269C500.619 72.1552 503.747 73.5263 503.747 73.5263C501.887 84.7786 498.759 89.8611 493.18 89.8611C492.101 89.8611 485.064 89.7665 476.357 79.0027C469.801 82.0365 462.37 84.5816 453.466 86.4334C453.466 86.4334 452.292 83.3051 449.55 80.7599C458.84 78.7033 466.373 76.6546 473.126 73.6208C470.975 69.5155 469.312 64.8191 468.335 60.3198H446.516V67.1673C452.583 66.5842 459.139 65.5047 464.419 64.4251V70.0986C458.942 71.0757 452.875 71.8558 446.516 72.7383V78.9003C446.516 87.0244 443.774 89.6641 430.378 89.6641H427.344C427.344 89.6641 427.053 85.7478 424.705 82.131C429.007 82.525 432.143 82.7141 434.294 82.7141C439.282 82.7141 439.771 81.4455 439.771 77.3322V73.613C434.681 74.1961 429.598 74.5901 425.682 74.8816C424.311 75.0786 422.94 75.3701 421.963 76.0557C421.182 76.5442 420.591 76.9382 420.103 76.9382C419.811 76.9382 418.834 76.9382 417.266 69.2082C417.266 69.0112 417.172 68.9166 417.172 68.7196C417.172 68.4281 417.369 68.2311 418.054 68.2311C418.251 68.2311 418.543 68.2311 418.937 68.3256C420.016 68.5226 421.868 68.5226 424.413 68.5226C428.424 68.5226 433.9 68.3256 439.771 67.9395L439.865 60.4064C432.435 60.4064 424.996 60.501 417.66 60.698V53.945C424.902 54.2366 432.332 54.339 439.865 54.4336V49.6427C434.878 50.1312 428.519 50.8167 422.065 51.0137C422.065 51.0137 421.576 47.6885 419.622 44.9463C435.863 44.7493 450.929 42.7951 453.371 41.818C453.954 41.621 454.151 41.227 454.545 41.227C455.231 41.227 461.685 44.9463 461.685 46.2149C461.685 46.7035 461.196 47.192 460.51 47.192H460.416C459.927 47.0975 459.336 47.0975 458.753 47.0975C458.17 47.0975 457.674 47.0975 457.091 47.2945C455.136 47.783 450.141 48.5631 446.524 48.9571V54.536C451.315 54.6306 456.311 54.6306 461.196 54.6306H467.161C466.381 49.4457 465.987 45.1433 465.593 43.1812C465.396 42.2041 465.01 41.3216 465.01 40.8331C465.01 40.5415 465.104 40.3445 465.498 40.3445H465.695C473.228 41.424 474.797 41.7156 474.797 42.6927C474.797 42.9842 474.6 43.4728 474.213 44.0638C473.725 44.8439 473.236 45.7264 473.236 47.192C473.236 49.5402 473.528 51.8884 473.922 54.5281C483.118 54.4336 492.707 54.2366 501.801 53.945V60.698L501.793 60.7138ZM500.808 40.1633C486.916 39.7693 473.126 39.6747 459.423 39.6747C445.72 39.6747 432.128 39.7693 418.629 40.1633V33.6073C430.859 34.0013 443.183 34.1904 455.412 34.2928V28.9109C445.925 28.9109 436.729 29.1079 428.802 29.3049V23.1429C435.752 23.4345 443.38 23.726 451.598 23.726H455.412V19.0297C445.042 19.0297 434.476 19.2267 422.837 19.5182V13.0647C426.753 13.1592 430.567 13.3562 434.184 13.4587C437.903 13.5532 441.52 13.5532 445.042 13.6557C443.285 11.1105 441.426 8.86476 438.975 6.51658L444.751 4.16841C447.879 7.00513 450.424 10.0388 452.875 13.6557C455.129 13.6557 457.374 13.7502 459.525 13.7502C461.677 13.7502 464.025 13.6557 466.176 13.6557C468.721 10.622 470.581 7.98222 471.361 6.21715C471.944 4.64907 471.944 4.16053 472.44 4.16053C472.535 4.16053 472.732 4.16053 472.929 4.25508C474.789 4.64907 476.94 5.13762 478.894 5.82316C479.477 6.02016 479.777 6.31171 479.777 6.7057C479.777 7.09969 479.485 7.4858 478.799 7.97434C477.334 9.05387 477.034 9.43998 476.357 10.4171C475.671 11.4966 474.891 12.4737 473.914 13.6478C481.053 13.5532 488.492 13.3562 496.513 13.0647V19.5182C484.189 19.2267 473.031 19.0297 462.473 19.0297V23.726C472.062 23.6315 481.746 23.529 490.454 23.1429V29.3049C481.841 29.0134 471.96 28.9109 462.473 28.9109V34.2928C474.899 34.2928 488.003 34.0013 500.823 33.6073V40.1633H500.808ZM491.809 53.4722C487.31 50.2415 483.393 47.9958 478.208 45.6476L482.314 40.9512C487.105 42.9054 491.116 44.9621 496.009 48.0903L491.801 53.4722H491.809Z" fill="black"/>
<path d="M601.007 35.1911C597.8 34.9941 589.983 34.8917 580.362 34.8917V35.593C580.362 61.4466 572.246 76.4733 551.703 87.702C549.497 84.9993 546.897 82.6905 544.485 80.5866C565.832 72.9747 572.246 57.9401 572.246 35.6954V34.8917C564.429 34.9941 556.014 35.1911 547.897 35.3881C547.897 44.4105 548.197 53.5274 548.701 57.7352L539.285 57.9322C539.687 53.7244 539.986 44.8045 539.986 35.4827C530.869 35.7821 523.352 36.0815 520.444 36.4834L520.342 27.5635C523.147 27.8629 530.459 27.9654 539.986 27.9654C539.884 19.8492 539.584 12.5367 538.985 9.72366C538.788 8.82536 538.481 8.12406 538.481 7.72219C538.481 7.42276 538.583 7.32032 539.08 7.32032H539.285C549.505 7.72219 550.206 7.91918 550.206 8.72292C550.206 9.02235 550.009 9.52666 549.607 10.0231C548.606 11.2287 548.402 11.6306 547.905 27.9575C555.517 27.9575 563.941 27.855 572.254 27.5556C572.254 20.645 572.151 13.4272 571.253 9.51878C571.056 8.81748 570.749 8.11618 570.749 7.61187C570.749 7.31244 570.851 7.10757 571.348 7.10757H571.545C581.363 7.407 582.765 7.61187 582.765 8.51017C582.765 8.8096 582.568 9.21147 582.167 9.71578C580.866 11.5202 580.661 12.521 580.362 27.4532C589.077 27.1537 597.501 26.8543 600.905 26.35L601.007 35.1675V35.1911Z" fill="black"/>
<path d="M674.021 89.9635C659.507 82.6905 635.946 74.0621 619.919 70.0198L623.772 62.6364C640.43 66.6709 663.021 74.1094 678.371 81.2721L674.013 89.9635H674.021ZM669.159 29.0843C658.9 24.7425 641.58 18.7224 630.927 15.9881L634.362 8.91204C645.961 11.7251 661.358 16.0826 672.674 20.8026L669.151 29.0764L669.159 29.0843ZM655.338 53.8662C645.165 48.5237 632.369 43.1261 621.707 39.6984L624.828 32.6302C635.174 35.8688 648.483 40.7543 659.065 45.5924L655.33 53.8741L655.338 53.8662Z" fill="black"/>
<path d="M719.905 88.5924C718.313 87.1032 715.146 84.4319 713.073 83.1475L712.065 82.525L713.199 82.1704C724.759 78.5378 735.019 71.6194 742.859 62.1636C749.982 53.5747 754.694 43.3231 756.121 33.3079C756.223 32.8114 756.247 32.315 756.278 31.8343C756.341 30.8021 756.412 29.628 757.46 29.628C757.594 29.628 757.878 29.628 758.122 29.7856C767.822 33.2369 767.822 33.8594 767.822 34.5765C767.822 35.2936 767.129 35.9712 766.719 36.3022C765.947 36.9877 765.379 37.6023 764.686 39.5644C756.83 60.8871 746.704 76.5364 720.512 88.6791L720.181 88.8367L719.913 88.5846L719.905 88.5924ZM710.528 52.96C708.992 47.1842 705.406 39.0207 702.381 34.3795L702.01 33.8122L710.071 30.8178L710.308 31.1803C713.255 35.6954 717.029 43.2837 719.283 49.225L719.464 49.7057L710.694 53.5747L710.528 52.96ZM729.96 48.4922C729.022 42.1569 726.138 33.9225 724.003 29.9274L723.672 29.3128L731.749 27.3507L731.953 27.6896C734.743 32.2362 737.58 40.4627 739.029 46.1755L739.163 46.6956L730.039 49.0911L729.952 48.4922H729.96Z" fill="black"/>
<path d="M793.431 88.1906C794.235 78.2699 794.732 57.5303 794.732 39.6905C794.732 25.9639 794.432 13.8369 793.731 9.73154C793.628 9.03023 793.03 8.2265 793.03 7.82463C793.03 7.5252 793.234 7.32032 793.936 7.32032H794.133C805.054 7.72219 805.456 7.82463 805.456 8.62049C805.456 8.91992 805.259 9.42422 804.755 10.1255C803.455 12.2294 802.95 13.0332 802.753 39.2886L807.26 34.3795C814.872 37.5866 826.101 43.394 834.012 48.1061L829.3 55.8204C821.988 50.407 811.161 44.5996 802.745 40.9906C802.745 44.899 802.643 48.9098 802.643 53.0152C802.643 66.9467 802.942 80.8702 803.746 87.5838L793.424 88.1827L793.431 88.1906Z" fill="black"/>
<path d="M933.487 16.3269C927.238 16.3269 923.046 20.5584 923.046 26.8543C923.046 33.1503 927.246 37.3817 933.487 37.3817C939.728 37.3817 943.928 33.1503 943.928 26.8543C943.928 20.5584 939.728 16.3269 933.487 16.3269Z" fill="black"/>
<path d="M971.081 67.8371C966.708 67.8371 962.603 69.3973 959.419 72.2498C960.979 75.7878 964.565 77.7971 969.395 77.7971C974.485 77.7971 977.897 75.5199 977.897 72.1394C977.897 68.3965 973.626 67.8371 971.081 67.8371Z" fill="black"/>
<path d="M995.966 26.7755L948.151 1.00861C946.922 0.346711 945.535 0 944.117 0H873.6C869.148 0 865.532 3.37255 865.532 7.53308V60.8319C865.532 63.519 867.068 66.009 869.566 67.3564L917.388 93.1233C918.618 93.7852 920.004 94.1319 921.423 94.1319H991.931C996.383 94.1319 1000 90.7594 1000 86.5988V33.2921C1000 30.6051 998.463 28.1151 995.966 26.7676V26.7755ZM910.966 42.3775H881.843V39.6668C881.843 29.1946 887.295 27.1774 896.286 25.0814C903.473 23.403 905.301 22.7174 905.301 20.4086C905.301 17.0282 901.054 16.319 897.5 16.319C893.347 16.319 889.975 17.2804 887.209 19.2503L885.814 20.2432L883.167 15.3183L884.27 14.5461C887.879 12.0324 892.197 10.8111 897.46 10.8111C906.12 10.8111 911.092 14.3806 911.092 20.6135C911.092 27.4611 905.112 28.8164 897.547 30.542C890.889 32.0471 888.257 33.0005 887.674 36.9956H910.966V42.3775ZM946.378 82.8008H917.254V80.0901C917.254 69.6179 922.707 67.5928 931.698 65.5047C938.884 63.8263 940.713 63.1407 940.713 60.8319C940.713 57.4515 936.465 56.7345 932.912 56.7345C928.759 56.7345 925.386 57.6958 922.621 59.6657L921.226 60.6586L918.578 55.7337L919.681 54.9615C923.29 52.4479 927.608 51.2265 932.872 51.2265C941.532 51.2265 946.504 54.796 946.504 61.0289C946.504 67.8765 940.523 69.2318 932.959 70.9575C926.3 72.4625 923.669 73.416 923.085 77.411H946.378V82.8008ZM933.487 42.8739C923.929 42.8739 917.254 36.2864 917.254 26.8543C917.254 17.4222 923.929 10.8347 933.487 10.8347C943.045 10.8347 949.719 17.4222 949.719 26.8543C949.719 36.2864 943.045 42.8739 933.487 42.8739ZM969.387 83.2972C959.254 83.2972 952.706 77.0879 952.706 67.4825C952.706 57.877 959.608 51.2501 970.293 51.2501C974.864 51.2501 978.867 52.3375 981.869 54.402L982.972 55.1585L980.356 60.2094L978.937 59.1851C976.7 57.5697 973.792 56.7502 970.301 56.7502C963.414 56.7502 958.994 60.4616 958.537 66.5133C962.193 63.8026 966.645 62.3449 971.373 62.3449C978.851 62.3449 983.689 66.1902 983.689 72.1473C983.689 78.8215 977.945 83.3051 969.395 83.3051L969.387 83.2972Z" fill="black"/>
</svg>
